<?xml version="1.0" encoding="UTF-8" standalone="no"?>
<svg
   version="1.1"
   x="0px"
   y="0px"
   viewBox="0 0 80 80"
   xml:space="preserve"
   id="svg8"
   sodipodi:docname="noun-exit.svg"
   width="80"
   height="80"
   inkscape:version="1.1.1 (3bf5ae0d25, 2021-09-20)"
   xmlns:inkscape="http://www.inkscape.org/namespaces/inkscape"
   xmlns:sodipodi="http://sodipodi.sourceforge.net/DTD/sodipodi-0.dtd"
   xmlns="http://www.w3.org/2000/svg"
   xmlns:svg="http://www.w3.org/2000/svg"><defs
     id="defs12" /><sodipodi:namedview
     id="namedview10"
     pagecolor="#ffffff"
     bordercolor="#666666"
     borderopacity="1.0"
     inkscape:pageshadow="2"
     inkscape:pageopacity="0.0"
     inkscape:pagecheckerboard="0"
     showgrid="false"
     height="80px"
     inkscape:zoom="8.12"
     inkscape:cx="40.024631"
     inkscape:cy="40.20936"
     inkscape:window-width="1920"
     inkscape:window-height="1001"
     inkscape:window-x="-9"
     inkscape:window-y="-9"
     inkscape:window-maximized="1"
     inkscape:current-layer="svg8" /><g
     id="g6"><path
       d="M 48.1162,61.3838 C 48.1162,63.6533 46.2695,65.5 44,65.5 H 18.6162 C 16.3467,65.5 14.5,63.6533 14.5,61.3838 V 18.6162 C 14.5,16.3467 16.3467,14.5 18.6162,14.5 H 44 c 2.2695,0 4.1162,1.8467 4.1162,4.1162 V 33 h 3 V 18.6162 C 51.1162,14.6924 47.9238,11.5 44,11.5 H 18.6162 C 14.6924,11.5 11.5,14.6924 11.5,18.6162 v 42.7676 c 0,3.9238 3.1924,7.1162 7.1162,7.1162 H 44 c 3.9238,0 7.1162,-3.1924 7.1162,-7.1162 V 47 h -3 z"
       id="path2" /><polygon
       points="54.9912,31.1099 63.1206,38.5 31,38.5 31,41.5 63.1206,41.5 54.9912,48.8901 57.0088,51.1099 69.2295,40 57.0088,28.8901 "
       id="polygon4" /></g></svg>
