<svg xmlns="http://www.w3.org/2000/svg" version="1.1" viewBox="-5.0 -10.0 110.0 135.0">
 <path d="m31.25 12.5c-2.2773 0-4.168 1.8906-4.168 4.168v15.625h-1.3945c-1.1211 0-2.9727-0.09375-4.6211 0.28906-4.1055 0.95312-7.3242 4.1758-8.2773 8.2812-0.38281 1.6484-0.28906 3.5-0.28906 4.6211v24.309c0 2.2773 1.8906 4.168 4.168 4.168h10.418v9.375c0 2.2773 1.8906 4.168 4.168 4.168h37.5c2.2773 0 4.168-1.8906 4.168-4.168l-0.003906-9.3789h10.418c2.2773 0 4.168-1.8906 4.168-4.168l-0.003906-24.305c0-1.1211 0.09375-2.9727-0.28906-4.6172-0.95313-4.1094-4.1719-7.332-8.2773-8.2852-1.6484-0.38281-3.5-0.28906-4.6211-0.28906h-1.3945v-15.625c0-2.2773-1.8906-4.168-4.168-4.168zm0 4.168h37.5v15.625h-37.5zm-5.5625 19.789h48.625c1.1797 0 3.0898 0.046875 3.6797 0.18359 2.5625 0.59766 4.5625 2.6016 5.1602 5.1641 0.13672 0.58984 0.18359 2.5 0.18359 3.6797v24.309h-10.418v-11.461c0-2.2773-1.8906-4.168-4.168-4.168l-37.5 0.003907c-2.2773 0-4.168 1.8906-4.168 4.168v11.457h-10.414v-24.309c0-1.1797 0.046875-3.0898 0.18359-3.6797 0.59375-2.5625 2.5977-4.5664 5.1602-5.1641 0.58594-0.13672 2.4961-0.18359 3.6758-0.18359zm-0.6875 5.2109c-1.1523 0-2.082 0.92969-2.082 2.082s0.92969 2.082 2.082 2.082h8.332c1.1523 0 2.0859-0.92969 2.0859-2.082s-0.93359-2.082-2.0859-2.082zm6.25 16.664h37.5v25h-37.5zm7.293 5.7344c-0.55469 0-1.082 0.21875-1.4727 0.60938-0.39062 0.39062-0.61328 0.92188-0.61328 1.4727 0 1.1523 0.93359 2.0859 2.0859 2.0859h22.914c1.1523 0 2.0859-0.93359 2.0859-2.0859 0-0.55078-0.22266-1.082-0.61328-1.4727-0.39063-0.39062-0.91797-0.60938-1.4727-0.60938zm0 9.3711c-0.55469 0-1.082 0.21875-1.4727 0.60938-0.39062 0.39062-0.61328 0.92188-0.61328 1.4727 0 1.1523 0.93359 2.0859 2.0859 2.0859h22.914c1.1523 0 2.0859-0.93359 2.0859-2.0859 0-0.55078-0.22266-1.082-0.61328-1.4727-0.39063-0.39062-0.91797-0.60938-1.4727-0.60938z"/>
<text x="0.0" y="117.5" font-size="5.0" font-weight="bold" font-family="Arbeit Regular, Helvetica, Arial-Unicode, Arial, Sans-serif" fill="#000000">Created by Taufik-76</text><text x="0.0" y="122.5" font-size="5.0" font-weight="bold" font-family="Arbeit Regular, Helvetica, Arial-Unicode, Arial, Sans-serif" fill="#000000">from Noun Project</text></svg>