<?xml version="1.0" encoding="UTF-8" standalone="no"?>
<svg
   version="1.1"
   viewBox="-5 -10 90 90"
   id="svg4"
   sodipodi:docname="noun-copy.svg"
   width="90"
   height="90"
   inkscape:version="1.1.1 (3bf5ae0d25, 2021-09-20)"
   xmlns:inkscape="http://www.inkscape.org/namespaces/inkscape"
   xmlns:sodipodi="http://sodipodi.sourceforge.net/DTD/sodipodi-0.dtd"
   xmlns="http://www.w3.org/2000/svg"
   xmlns:svg="http://www.w3.org/2000/svg">
  <defs
     id="defs8" />
  <sodipodi:namedview
     id="namedview6"
     pagecolor="#ffffff"
     bordercolor="#666666"
     borderopacity="1.0"
     inkscape:pageshadow="2"
     inkscape:pageopacity="0.0"
     inkscape:pagecheckerboard="0"
     showgrid="false"
     showborder="true"
     width="90px"
     inkscape:zoom="6.0148148"
     inkscape:cx="55.030788"
     inkscape:cy="53.617611"
     inkscape:window-width="1920"
     inkscape:window-height="1001"
     inkscape:window-x="-9"
     inkscape:window-y="-9"
     inkscape:window-maximized="1"
     inkscape:current-layer="svg4" />
  <path
     d="m 8.852,62.801 c 0,5.4492 4.4297,9.8789 9.8711,9.8789 h 27.379 c 5.4414,0 9.8711,-4.4297 9.8711,-9.8789 v -5.3008 h 5.3008 c 5.4414,0 9.8711,-4.4297 9.8711,-9.8789 v -30.32 c 0,-0.14062 -0.01953,-0.28125 -0.03906,-0.41016 V 16.81301 C 71.06698,16.60207 70.98495,16.40285 70.8951,16.22317 70.86385,16.17239 70.84432,16.12161 70.81697,16.07473 70.70759,15.88332 70.5865,15.71535 70.43806,15.56301 v -0.01172 l -19.488,-19.488 H 50.93834 C 50.7899,-4.08515 50.61022,-4.20624 50.41881,-4.31562 50.36803,-4.34687 50.32897,-4.3664 50.27819,-4.38593 49.95007,-4.55781 49.56725,-4.65546 49.16879,-4.65546 h -15.262 c -5.4414,0 -9.8711,4.4297 -9.8711,9.8789 v 5.3008 h -5.3008 c -5.4414,0 -9.8711,4.4297 -9.8711,9.8789 v 42.43 z M 51.661,3.852 62.622,14.813 H 51.661 Z M 29.02,5.1997 c 0,-2.6914 2.1797,-4.8789 4.8711,-4.8789 h 12.762 v 16.988 c 0,1.3789 1.1211,2.5 2.5,2.5 h 16.988 v 27.82 c 0,2.6914 -2.1797,4.8789 -4.8711,4.8789 h -5.3008 v -20.02 c 0,-0.16016 -0.01953,-0.32031 -0.05078,-0.46875 V 31.99942 C 55.87936,31.78067 55.79733,31.57754 55.69967,31.39004 55.68014,31.35098 55.64889,31.3002 55.62936,31.26113 55.51998,31.06972 55.39108,30.88222 55.23092,30.72207 l -19.488,-19.488 C 35.58276,11.07391 35.40308,10.94501 35.20386,10.83563 35.1648,10.8161 35.12573,10.78485 35.07495,10.76532 34.88354,10.66376 34.67651,10.58563 34.46557,10.54657 h -0.01172 c -0.14844,-0.03125 -0.30859,-0.05078 -0.48047,-0.05078 h -4.9609 v -5.3008 z m 7.4609,13.832 10.961,10.961 h -10.961 z m -22.629,1.3398 c 0,-2.6914 2.1797,-4.8789 4.8711,-4.8789 h 7.7617 0.03906 0.03906 4.9219 v 16.988 c 0,1.3789 1.1211,2.5 2.5,2.5 h 16.988 v 27.82 c 0,2.6914 -2.1797,4.8789 -4.8711,4.8789 h -27.379 c -2.6914,0 -4.8711,-2.1914 -4.8711,-4.8789 z"
     id="path2" />
</svg>
