<svg xmlns="http://www.w3.org/2000/svg" version="1.1" viewBox="-5.0 -10.0 110.0 135.0">
 <path d="m57.488 61.316c-1.6562 0-3-1.3438-3-3s1.3438-3 3-3h2.7734l-7.2734-7.2734c-1.1719-1.1719-1.1719-3.0703 0-4.2422s3.0703-1.1719 4.2422 0l7.2734 7.2734v-2.7734c0-1.6562 1.3438-3 3-3s3 1.3438 3 3v10.016c0 1.6523-1.3477 3-3 3zm-46.637 6.8086c1.6562 0 3 1.3438 3 3s-1.3438 3-3 3c-2.375 0-4.5312-0.97266-6.0938-2.5312-1.5586-1.5586-2.5312-3.7188-2.5312-6.0938v-49.375c0-2.375 0.97266-4.5312 2.5312-6.0938 1.5586-1.5586 3.7188-2.5312 6.0938-2.5312h78.297c2.375 0 4.5312 0.97266 6.0938 2.5312 1.5586 1.5586 2.5312 3.7188 2.5312 6.0938v49.375c0 2.375-0.97266 4.5312-2.5312 6.0938-1.5586 1.5586-3.7188 2.5312-6.0938 2.5312h-31.066l1.3242 4.5781c2.9023 0.39062 5.7266 0.95312 8.4336 1.6836 5.6328 1.5195 10.762 3.7656 15.012 6.6289 1.3711 0.92578 1.7344 2.7891 0.80859 4.1602-0.92578 1.3711-2.7891 1.7344-4.1602 0.80859-3.7031-2.4922-8.2188-4.4609-13.211-5.8125-5.0547-1.3633-10.598-2.0938-16.289-2.0938s-11.23 0.73047-16.289 2.0938c-4.9922 1.3477-9.5078 3.3164-13.211 5.8125-1.3711 0.92578-3.2344 0.5625-4.1602-0.80859-0.92578-1.3711-0.5625-3.2344 0.80859-4.1602 4.25-2.8633 9.3828-5.1094 15.012-6.6289 2.707-0.73047 5.5312-1.2969 8.4336-1.6836l1.3242-4.5781h-14.383c-1.6562 0-3-1.3438-3-3s1.3438-3 3-3h61.613c0.71875 0 1.3789-0.29688 1.8516-0.77344 0.47656-0.47656 0.77344-1.1328 0.77344-1.8516v-49.375c0-0.71875-0.29688-1.3789-0.77344-1.8516-0.47656-0.47656-1.1328-0.77344-1.8516-0.77344h-78.297c-0.71875 0-1.3789 0.29688-1.8516 0.77344-0.47656 0.47656-0.77344 1.1328-0.77344 1.8516v49.375c0 0.71875 0.29688 1.3789 0.77344 1.8516 0.47656 0.47656 1.1328 0.77344 1.8516 0.77344zm41.008 6h-3.7188l-1.1641 4.0156c1.0039-0.042969 2.0117-0.0625 3.0195-0.0625 1.0117 0 2.0195 0.019531 3.0195 0.0625l-1.1641-4.0156zm-32.434-6c1.6562 0 3 1.3438 3 3s-1.3438 3-3 3h-0.46094c-1.6562 0-3-1.3438-3-3s1.3438-3 3-3zm38.062-41.812c-1.6562 0-3-1.3438-3-3s1.3438-3 3-3h10.016c1.6523 0 3 1.3477 3 3v10.016c0 1.6562-1.3438 3-3 3s-3-1.3438-3-3v-2.7734l-7.2734 7.2734c-1.1719 1.1719-3.0703 1.1719-4.2422 0s-1.1719-3.0703 0-4.2422l7.2734-7.2734zm-14.973-6c1.6562 0 3 1.3438 3 3s-1.3438 3-3 3h-2.7734l7.2734 7.2734c1.1719 1.1719 1.1719 3.0703 0 4.2422s-3.0703 1.1719-4.2422 0l-7.2734-7.2734v2.7734c0 1.6562-1.3438 3-3 3s-3-1.3438-3-3v-10.016c0-1.6523 1.3477-3 3-3zm0 35c1.6562 0 3 1.3438 3 3s-1.3438 3-3 3h-10.016c-1.6523 0-3-1.3477-3-3v-10.016c0-1.6562 1.3438-3 3-3s3 1.3438 3 3v2.7734l7.2734-7.2734c1.1719-1.1719 3.0703-1.1719 4.2422 0s1.1719 3.0703 0 4.2422l-7.2734 7.2734z"/>
<text x="0.0" y="117.5" font-size="5.0" font-weight="bold" font-family="Arbeit Regular, Helvetica, Arial-Unicode, Arial, Sans-serif" fill="#000000">Created by bhusana project</text><text x="0.0" y="122.5" font-size="5.0" font-weight="bold" font-family="Arbeit Regular, Helvetica, Arial-Unicode, Arial, Sans-serif" fill="#000000">from Noun Project</text></svg>