<?xml version="1.0" encoding="UTF-8" standalone="no"?>
<svg
   viewBox="0 0 50 50"
   x="0px"
   y="0px"
   version="1.1"
   id="svg2"
   sodipodi:docname="noun-folder-contents.svg"
   width="50"
   height="50"
   inkscape:version="1.4 (86a8ad7, 2024-10-11)"
   xmlns:inkscape="http://www.inkscape.org/namespaces/inkscape"
   xmlns:sodipodi="http://sodipodi.sourceforge.net/DTD/sodipodi-0.dtd"
   xmlns="http://www.w3.org/2000/svg"
   xmlns:svg="http://www.w3.org/2000/svg"
   xmlns:rdf="http://www.w3.org/1999/02/22-rdf-syntax-ns#"
   xmlns:cc="http://creativecommons.org/ns#"
   xmlns:dc="http://purl.org/dc/elements/1.1/">
  <defs
     id="defs2" />
  <sodipodi:namedview
     id="namedview2"
     pagecolor="#ffffff"
     bordercolor="#000000"
     borderopacity="0.25"
     inkscape:showpageshadow="2"
     inkscape:pageopacity="0.0"
     inkscape:pagecheckerboard="0"
     inkscape:deskcolor="#d1d1d1"
     inkscape:zoom="7.1363392"
     inkscape:cx="-1.6815344"
     inkscape:cy="19.758029"
     inkscape:window-width="1600"
     inkscape:window-height="912"
     inkscape:window-x="-8"
     inkscape:window-y="-8"
     inkscape:window-maximized="1"
     inkscape:current-layer="svg2" />
  <title
     id="title1">folder contents</title>
  <g
     id="g1"
     transform="matrix(2.3529412,0,0,2.353846,5,10.000002)">
    <rect
       x="8"
       width="9"
       height="1"
       id="rect1"
       y="0" />
    <path
       d="M 15.5,2 H 7.207 L 5.354,0.146 A 0.5,0.5 0 0 0 5,0 H 1.5 A 1.506,1.506 0 0 0 0,1.5 v 10 A 1.506,1.506 0 0 0 1.5,13 h 14 A 1.506,1.506 0 0 0 17,11.5 v -8 A 1.506,1.506 0 0 0 15.5,2 Z M 16,11.5 A 0.5,0.5 0 0 1 15.5,12 H 1.5 A 0.5,0.5 0 0 1 1,11.5 V 1.5 A 0.5,0.5 0 0 1 1.5,1 H 4.793 L 6.646,2.854 A 0.5,0.5 0 0 0 7,3 h 8.5 A 0.5,0.5 0 0 1 16,3.5 Z"
       id="path1" />
  </g>
  <metadata
     id="metadata2">
    <rdf:RDF>
      <cc:Work
         rdf:about="">
        <dc:title>folder contents</dc:title>
      </cc:Work>
    </rdf:RDF>
  </metadata>
</svg>
