<?xml version="1.0" encoding="UTF-8" standalone="no"?>
<svg
   version="1.1"
   x="0px"
   y="0px"
   viewBox="0 0 50 50"
   enable-background="new 0 0 100 100"
   xml:space="preserve"
   id="svg4"
   width="50"
   height="50"
   xmlns="http://www.w3.org/2000/svg"
   xmlns:svg="http://www.w3.org/2000/svg"><defs
     id="defs4" /><g
     id="g1"
     transform="matrix(0.53741049,0,0,0.53746826,-1.8707931,-1.8731441)"
     style="stroke-width:0.99918247;stroke-dasharray:none;fill:#bbbbbb;fill-opacity:1"><path
       d="m 36.361,63.029 h -2.116 c -1.348,0 -2.438,-1.096 -2.438,-2.445 v -22.35 c 0,-1.349 1.09,-2.444 2.438,-2.444 h 2.116 c 1.349,0 2.445,1.096 2.445,2.444 v 22.35 c 0,1.35 -1.096,2.445 -2.445,2.445 z"
       id="path1"
       style="stroke-width:0.99918247;stroke-dasharray:none;fill:#bbbbbb;fill-opacity:1" /></g><g
     id="g2"
     transform="matrix(0.53741049,0,0,0.53746826,-1.8707931,-1.8731441)"
     style="stroke-width:0.99918247;stroke-dasharray:none;fill:#bbbbbb;fill-opacity:1"><path
       d="M 44.243,51.49 63.54,62.627 c 1.168,0.674 2.658,0.271 3.34,-0.898 0.211,-0.369 0.328,-0.791 0.328,-1.219 V 38.234 c 0,-1.349 -1.096,-2.444 -2.445,-2.444 -0.432,0 -0.854,0.11 -1.223,0.328 L 44.243,47.255 c -1.162,0.674 -1.57,2.166 -0.891,3.336 0.211,0.372 0.52,0.682 0.891,0.899 z"
       id="path2"
       style="stroke-width:0.99918247;stroke-dasharray:none;fill:#bbbbbb;fill-opacity:1" /></g><path
     d="M 45,25.002419 C 45,36.047391 36.046741,45 24.999194,45 13.955408,45 5,36.047929 5,25.002419 5,13.953684 13.955408,5 24.999194,5 36.046741,5.000537 45,13.954221 45,25.002419 Z m -2.301729,0 c 0,-9.775473 -7.922506,-17.697218 -17.699077,-17.697218 -9.769585,0 -17.691553,7.921208 -17.691553,17.697218 0,9.770635 7.921968,17.696142 17.691553,17.696142 9.776034,5.37e-4 17.699077,-7.92497 17.699077,-17.696142 z"
     id="path3"
     style="stroke-width:0.537;stroke-dasharray:none;fill:#bbbbbb;fill-opacity:1" /></svg>
