<?xml version="1.0" encoding="UTF-8" standalone="no"?>
<svg
   data-name="Layer 1"
   viewBox="-5 -10 110 115"
   x="0px"
   y="0px"
   version="1.1"
   id="svg10"
   sodipodi:docname="noun-options.svg"
   width="110"
   height="115"
   inkscape:version="1.1.1 (3bf5ae0d25, 2021-09-20)"
   xmlns:inkscape="http://www.inkscape.org/namespaces/inkscape"
   xmlns:sodipodi="http://sodipodi.sourceforge.net/DTD/sodipodi-0.dtd"
   xmlns="http://www.w3.org/2000/svg"
   xmlns:svg="http://www.w3.org/2000/svg"
   xmlns:rdf="http://www.w3.org/1999/02/22-rdf-syntax-ns#"
   xmlns:cc="http://creativecommons.org/ns#"
   xmlns:dc="http://purl.org/dc/elements/1.1/">
  <defs
     id="defs14" />
  <sodipodi:namedview
     id="namedview12"
     pagecolor="#ffffff"
     bordercolor="#666666"
     borderopacity="1.0"
     inkscape:pageshadow="2"
     inkscape:pageopacity="0.0"
     inkscape:pagecheckerboard="0"
     showgrid="false"
     inkscape:zoom="6.0148148"
     inkscape:cx="55.030788"
     inkscape:cy="53.617611"
     inkscape:window-width="1920"
     inkscape:window-height="1001"
     inkscape:window-x="-9"
     inkscape:window-y="-9"
     inkscape:window-maximized="1"
     inkscape:current-layer="svg10" />
  <title
     id="title2">UI Icon</title>
  <path
     d="m 90.166,37.098108 h -2.19 a 1.618,1.618 0 0 1 -1.59,-1.2 37.6,37.6 0 0 0 -3.386,-8.179 1.615,1.615 0 0 1 0.273,-1.975 l 1.55,-1.55 a 5.66,5.66 0 0 0 0,-7.993 l -4.848,-4.845 a 5.658,5.658 0 0 0 -7.993,0 l -1.55,1.55 a 1.616,1.616 0 0 1 -1.975,0.27 37.6,37.6 0 0 0 -8.176,-3.3889996 1.618,1.618 0 0 1 -1.2,-1.59 v -2.187 A 5.658,5.658 0 0 0 53.429,0.35910837 H 46.574 A 5.658,5.658 0 0 0 40.922,6.0101084 v 2.19 a 1.618,1.618 0 0 1 -1.2,1.59 37.637,37.637 0 0 0 -8.179,3.3859996 1.617,1.617 0 0 1 -1.975,-0.273 l -1.55,-1.55 a 5.658,5.658 0 0 0 -7.993,0 l -4.846,4.845 a 5.66,5.66 0 0 0 0,7.993 l 1.55,1.551 a 1.613,1.613 0 0 1 0.271,1.977 37.7,37.7 0 0 0 -3.39,8.176 1.616,1.616 0 0 1 -1.589,1.2 H 9.834 a 5.658,5.658 0 0 0 -5.651,5.652 v 6.852 a 5.658,5.658 0 0 0 5.651,5.652 h 2.19 a 1.616,1.616 0 0 1 1.589,1.2 37.661,37.661 0 0 0 3.387,8.182 1.615,1.615 0 0 1 -0.273,1.975 l -1.55,1.551 a 5.658,5.658 0 0 0 0,7.992 l 4.845,4.846 a 5.659,5.659 0 0 0 7.992,0 l 1.552,-1.551 a 1.613,1.613 0 0 1 1.977,-0.27 37.711,37.711 0 0 0 8.176,3.39 1.616,1.616 0 0 1 1.2,1.589 v 2.19 a 5.658,5.658 0 0 0 5.652,5.651 h 6.852 a 5.658,5.658 0 0 0 5.652,-5.651 v -2.19 a 1.616,1.616 0 0 1 1.2,-1.589 37.661,37.661 0 0 0 8.182,-3.39 1.615,1.615 0 0 1 1.975,0.273 l 1.55,1.551 a 5.66,5.66 0 0 0 7.993,0 l 4.845,-4.845 a 5.658,5.658 0 0 0 0,-7.992 l -1.55,-1.551 a 1.615,1.615 0 0 1 -0.27,-1.979 37.666,37.666 0 0 0 3.389,-8.176 1.618,1.618 0 0 1 1.59,-1.2 h 2.19 a 5.658,5.658 0 0 0 5.651,-5.652 v -6.855 a 5.658,5.658 0 0 0 -5.654,-5.652 z m 1.651,12.5 a 1.654,1.654 0 0 1 -1.651,1.652 h -2.19 a 5.6,5.6 0 0 0 -5.439,4.126 33.687,33.687 0 0 1 -3.03,7.306 5.6,5.6 0 0 0 0.934,6.759 l 1.551,1.551 a 1.654,1.654 0 0 1 0,2.335 l -4.846,4.846 a 1.653,1.653 0 0 1 -2.335,0 l -1.55,-1.551 a 5.6,5.6 0 0 0 -6.76,-0.933 33.7,33.7 0 0 1 -7.301,3.024 5.6,5.6 0 0 0 -4.117,5.439 v 2.19 a 1.654,1.654 0 0 1 -1.652,1.651 h -6.857 a 1.654,1.654 0 0 1 -1.652,-1.651 v -2.19 a 5.6,5.6 0 0 0 -4.117,-5.439 33.65,33.65 0 0 1 -7.306,-3.03 5.683,5.683 0 0 0 -2.778,-0.733 5.615,5.615 0 0 0 -3.981,1.667 l -1.551,1.551 a 1.653,1.653 0 0 1 -2.335,0 l -4.846,-4.846 a 1.653,1.653 0 0 1 0,-2.335 l 1.551,-1.551 a 5.6,5.6 0 0 0 0.933,-6.759 33.7,33.7 0 0 1 -3.029,-7.301 5.6,5.6 0 0 0 -5.439,-4.117 h -2.19 a 1.654,1.654 0 0 1 -1.651,-1.652 v -6.857 a 1.654,1.654 0 0 1 1.651,-1.652 h 2.19 a 5.6,5.6 0 0 0 5.439,-4.117 33.621,33.621 0 0 1 3.03,-7.306 5.6,5.6 0 0 0 -0.934,-6.759 l -1.551,-1.551 a 1.653,1.653 0 0 1 0,-2.335 l 4.846,-4.846 a 1.7,1.7 0 0 1 2.335,0 l 1.55,1.55 a 5.6,5.6 0 0 0 6.76,0.933 33.642,33.642 0 0 1 7.307,-3.029 5.6,5.6 0 0 0 4.116,-5.4389996 v -2.189 a 1.654,1.654 0 0 1 1.652,-1.651 h 6.852 a 1.654,1.654 0 0 1 1.652,1.651 v 2.19 a 5.6,5.6 0 0 0 4.122,5.4389996 33.641,33.641 0 0 1 7.306,3.03 5.6,5.6 0 0 0 6.759,-0.934 l 1.551,-1.551 a 1.654,1.654 0 0 1 2.335,0 l 4.845,4.846 a 1.653,1.653 0 0 1 0,2.335 l -1.551,1.55 a 5.6,5.6 0 0 0 -0.934,6.76 33.637,33.637 0 0 1 3.03,7.307 5.6,5.6 0 0 0 5.439,4.116 h 2.19 a 1.654,1.654 0 0 1 1.651,1.652 z M 50,21.646108 a 24.53,24.53 0 1 0 24.53,24.53 24.558,24.558 0 0 0 -24.53,-24.53 z m 0,45.06 a 20.53,20.53 0 1 1 20.53,-20.53 20.554,20.554 0 0 1 -20.53,20.53 z"
     id="path4" />
  <metadata
     id="metadata831">
    <rdf:RDF>
      <cc:Work
         rdf:about="">
        <dc:title>UI Icon</dc:title>
      </cc:Work>
    </rdf:RDF>
  </metadata>
</svg>
