<svg xmlns="http://www.w3.org/2000/svg" version="1.1" viewBox="-5.0 -10.0 110.0 135.0">
 <path d="m50 80.113c-0.52734 0-0.97656-0.42578-0.97656-0.97656v-12.816c0-0.52734 0.42578-0.97656 0.97656-0.97656s0.97656 0.42578 0.97656 0.97656v12.816c-0.019531 0.55078-0.44531 0.97656-0.97656 0.97656z" fill-rule="evenodd"/>
 <path d="m50 87.703c-0.26562 0-0.50781-0.019531-0.77344-0.0625-2.582-0.42578-4.3555-2.8672-3.9258-5.4531 0.20312-1.2617 0.875-2.3594 1.9141-3.0938 1.0391-0.73047 2.2773-1.0391 3.5391-0.83203 1.2617 0.20312 2.3594 0.875 3.0938 1.9141 0.73438 1.0391 1.0391 2.2773 0.83203 3.5391-0.20313 1.2617-0.875 2.3594-1.9141 3.0938-0.8125 0.58984-1.7695 0.89453-2.7695 0.89453zm-0.019531-7.5898c-0.58984 0-1.1602 0.18359-1.6484 0.52734-0.60938 0.44922-1.0195 1.0977-1.1406 1.832-0.24219 1.5273 0.79297 2.9922 2.3398 3.2344 0.75391 0.12109 1.4844-0.0625 2.0977-0.48828 0.60938-0.44922 1.0195-1.0977 1.1406-1.832 0.12109-0.75391-0.0625-1.4844-0.48828-2.0977-0.42578-0.60937-1.0977-1.0195-1.832-1.1406-0.16406-0.019532-0.30469-0.039063-0.46875-0.039063z" fill-rule="evenodd"/>
 <path d="m84.812 20.883h-69.625c-0.52734 0-0.97656-0.42578-0.97656-0.97656v-6.6328c0-0.52734 0.42578-0.97656 0.97656-0.97656h69.625c0.52734 0 0.97656 0.42578 0.97656 0.97656v6.6328c-0.019531 0.55078-0.44531 0.97656-0.97656 0.97656zm-68.672-1.9336h67.695v-4.6992h-67.695z" fill-rule="evenodd"/>
 <path d="m84.812 67.316h-69.625c-0.52734 0-0.97656-0.42578-0.97656-0.97656v-6.6133c0-0.52734 0.42578-0.97656 0.97656-0.97656h69.625c0.52734 0 0.97656 0.42578 0.97656 0.97656v6.6328c0 0.53125-0.42578 0.95703-0.97656 0.95703zm-68.672-1.9336h67.695v-4.6992h-67.695z" fill-rule="evenodd"/>
 <path d="m80.418 60.684h-60.855c-0.52734 0-0.97656-0.42578-0.97656-0.97656v-39.797c0-0.52734 0.42578-0.97656 0.97656-0.97656h60.855c0.52734 0 0.97656 0.42578 0.97656 0.97656v39.82c0 0.52734-0.44531 0.95703-0.97656 0.95703zm-59.902-1.9336h58.926v-37.863h-58.926v37.867z" fill-rule="evenodd"/>
 <path d="m42.676 50.652c-0.16406 0-0.32422-0.039063-0.48828-0.12109-0.30469-0.16406-0.48828-0.48828-0.48828-0.83203v-19.734c0-0.34375 0.18359-0.67188 0.48828-0.83203 0.30469-0.16406 0.67188-0.16406 0.97656 0l17.09 9.8672c0.30469 0.16406 0.48828 0.48828 0.48828 0.83203s-0.18359 0.67188-0.48828 0.83203l-17.09 9.8672c-0.14062 0.082031-0.30469 0.12109-0.48828 0.12109zm0.97656-19.023v16.379l14.184-8.1992z" fill-rule="evenodd"/>
<text x="0.0" y="117.5" font-size="5.0" font-weight="bold" font-family="Arbeit Regular, Helvetica, Arial-Unicode, Arial, Sans-serif" fill="#000000">Created by Junaid Ali</text><text x="0.0" y="122.5" font-size="5.0" font-weight="bold" font-family="Arbeit Regular, Helvetica, Arial-Unicode, Arial, Sans-serif" fill="#000000">from Noun Project</text></svg>