<?xml version="1.0" encoding="UTF-8" standalone="no"?>
<svg
   version="1.1"
   viewBox="-5 -10 110 110"
   id="svg18"
   sodipodi:docname="noun-slides-show.svg"
   width="110"
   height="110"
   inkscape:version="1.1.1 (3bf5ae0d25, 2021-09-20)"
   xmlns:inkscape="http://www.inkscape.org/namespaces/inkscape"
   xmlns:sodipodi="http://sodipodi.sourceforge.net/DTD/sodipodi-0.dtd"
   xmlns="http://www.w3.org/2000/svg"
   xmlns:svg="http://www.w3.org/2000/svg">
  <defs
     id="defs22" />
  <sodipodi:namedview
     id="namedview20"
     pagecolor="#ffffff"
     bordercolor="#666666"
     borderopacity="1.0"
     inkscape:pageshadow="2"
     inkscape:pageopacity="0.0"
     inkscape:pagecheckerboard="0"
     showgrid="false"
     inkscape:zoom="6.0148148"
     inkscape:cx="55.030788"
     inkscape:cy="57.10899"
     inkscape:window-width="1920"
     inkscape:window-height="1001"
     inkscape:window-x="-9"
     inkscape:window-y="-9"
     inkscape:window-maximized="1"
     inkscape:current-layer="svg18" />
  <path
     d="m 50.141767,85.330148 c -0.676773,0 -1.25329,-0.546434 -1.25329,-1.25329 V 67.62916 c 0,-0.676774 0.546435,-1.25329 1.25329,-1.25329 0.706856,0 1.25329,0.546434 1.25329,1.25329 v 16.447698 c -0.02506,0.706856 -0.571498,1.25329 -1.25329,1.25329 z"
     fill-rule="evenodd"
     id="path2"
     style="stroke-width:1.28337" />
  <path
     d="m 50.141767,95.070943 c -0.340889,0 -0.651709,-0.02506 -0.992611,-0.08021 -3.313667,-0.546435 -5.589728,-3.679685 -5.038263,-6.998357 0.260679,-1.619231 1.122951,-3.027989 2.456503,-3.970497 1.333552,-0.937465 2.922624,-1.333552 4.541983,-1.067805 1.61923,0.260679 3.027988,1.122951 3.970497,2.456503 0.942483,1.333552 1.333552,2.922624 1.067804,4.541983 -0.260692,1.619231 -1.122951,3.027988 -2.456503,3.970497 -1.04274,0.756984 -2.270927,1.148015 -3.554299,1.148015 z m -0.02506,-9.740538 c -0.756984,0 -1.488968,0.235614 -2.115511,0.676773 -0.782061,0.576517 -1.308398,1.408758 -1.463814,2.351138 -0.31082,1.960095 1.017676,3.840107 3.002834,4.150939 0.967547,0.155404 1.905038,-0.08021 2.69213,-0.626645 0.782062,-0.576516 1.308398,-1.408757 1.463815,-2.351137 0.155403,-0.967548 -0.08021,-1.905038 -0.626645,-2.69213 -0.546435,-0.782049 -1.408758,-1.308398 -2.351138,-1.463815 -0.21055,-0.02506 -0.391031,-0.05013 -0.601581,-0.05013 z"
     fill-rule="evenodd"
     id="path4"
     style="stroke-width:1.28337" />
  <path
     d="M 94.818521,9.3160113 H 5.46373 c -0.6767735,0 -1.25329,-0.5464343 -1.25329,-1.25329 V -0.44963002 C 4.21044,-1.1264035 4.7568742,-1.70292 5.46373,-1.70292 h 89.354791 c 0.676774,0 1.25329,0.5464342 1.25329,1.25328998 V 8.0627213 c -0.02506,0.7068557 -0.571498,1.25329 -1.25329,1.25329 z M 6.6867837,6.8344827 H 93.564667 V 0.80365996 H 6.6867837 Z"
     fill-rule="evenodd"
     id="path6"
     style="stroke-width:1.28337" />
  <path
     d="M 94.818521,68.906834 H 5.46373 c -0.6767735,0 -1.25329,-0.546434 -1.25329,-1.25329 v -8.487326 c 0,-0.676773 0.5464342,-1.25329 1.25329,-1.25329 h 89.354791 c 0.676774,0 1.25329,0.546435 1.25329,1.25329 v 8.512352 c 0,0.681791 -0.546434,1.228225 -1.25329,1.228225 z M 6.6867837,66.425305 H 93.564667 V 60.394483 H 6.6867837 Z"
     fill-rule="evenodd"
     id="path8"
     style="stroke-width:1.28337" />
  <path
     d="M 89.179384,60.395509 H 11.079767 c -0.676774,0 -1.2532901,-0.546434 -1.2532901,-1.25329 V 8.0678548 c 0,-0.6767735 0.5464341,-1.25329 1.2532901,-1.25329 h 78.099617 c 0.676773,0 1.25329,0.5464342 1.25329,1.25329 V 59.171737 c 0,0.676773 -0.571499,1.228226 -1.25329,1.228226 z M 12.302821,57.913981 H 87.926812 V 9.3216581 H 12.302821 V 57.919114 Z"
     fill-rule="evenodd"
     id="path10"
     style="stroke-width:1.28337" />
  <path
     d="m 40.742349,47.520719 c -0.21055,0 -0.416095,-0.05013 -0.626645,-0.155403 -0.391031,-0.210551 -0.626645,-0.626645 -0.626645,-1.067805 V 20.971444 c 0,-0.441159 0.235614,-0.862272 0.626645,-1.067804 0.391031,-0.21055 0.862272,-0.21055 1.25329,0 l 21.932831,12.66329 c 0.391031,0.21055 0.626645,0.626645 0.626645,1.067804 0,0.441159 -0.235614,0.862272 -0.626645,1.067804 L 41.368994,47.365829 c -0.180468,0.105275 -0.391031,0.155403 -0.626645,0.155403 z m 1.25329,-24.41359 V 44.127483 L 60.198991,33.604857 Z"
     fill-rule="evenodd"
     id="path12"
     style="stroke-width:1.28337" />
</svg>
