<svg xmlns="http://www.w3.org/2000/svg" version="1.1" viewBox="-5.0 -10.0 110.0 135.0">
 <path d="m18.852 78.801c0 5.4492 4.4297 9.8789 9.8711 9.8789h27.379c5.4414 0 9.8711-4.4297 9.8711-9.8789v-5.3008h5.3008c5.4414 0 9.8711-4.4297 9.8711-9.8789v-30.32c0-0.14062-0.019531-0.28125-0.039062-0.41016v-0.078125c-0.039063-0.21094-0.12109-0.41016-0.21094-0.58984-0.03125-0.050781-0.050781-0.10156-0.078125-0.14844-0.10938-0.19141-0.23047-0.35938-0.37891-0.51172v-0.011719l-19.488-19.488h-0.011719c-0.14844-0.14844-0.32812-0.26953-0.51953-0.37891-0.050781-0.03125-0.089844-0.050782-0.14062-0.070313-0.32812-0.17188-0.71094-0.26953-1.1094-0.26953h-15.262c-5.4414 0-9.8711 4.4297-9.8711 9.8789v5.3008h-5.3008c-5.4414 0-9.8711 4.4297-9.8711 9.8789v42.43zm42.809-58.949 10.961 10.961h-10.961zm-22.641 1.3477c0-2.6914 2.1797-4.8789 4.8711-4.8789h12.762v16.988c0 1.3789 1.1211 2.5 2.5 2.5h16.988v27.82c0 2.6914-2.1797 4.8789-4.8711 4.8789h-5.3008v-20.02c0-0.16016-0.019531-0.32031-0.050781-0.46875v-0.019531c-0.039063-0.21875-0.12109-0.42188-0.21875-0.60938-0.019531-0.039063-0.050781-0.089844-0.070313-0.12891-0.10938-0.19141-0.23828-0.37891-0.39844-0.53906l-19.488-19.488c-0.16016-0.16016-0.33984-0.28906-0.53906-0.39844-0.039063-0.019532-0.078125-0.050782-0.12891-0.070313-0.19141-0.10156-0.39844-0.17969-0.60938-0.21875h-0.011719c-0.14844-0.03125-0.30859-0.050781-0.48047-0.050781h-4.9609v-5.3008zm7.4609 13.832 10.961 10.961h-10.961zm-22.629 1.3398c0-2.6914 2.1797-4.8789 4.8711-4.8789h7.7617 0.039063 0.039062 4.9219v16.988c0 1.3789 1.1211 2.5 2.5 2.5h16.988v27.82c0 2.6914-2.1797 4.8789-4.8711 4.8789h-27.379c-2.6914 0-4.8711-2.1914-4.8711-4.8789z"/>
<text x="0.0" y="117.5" font-size="5.0" font-weight="bold" font-family="Arbeit Regular, Helvetica, Arial-Unicode, Arial, Sans-serif" fill="#000000">Created by Rizalwale</text><text x="0.0" y="122.5" font-size="5.0" font-weight="bold" font-family="Arbeit Regular, Helvetica, Arial-Unicode, Arial, Sans-serif" fill="#000000">from Noun Project</text></svg>