<?xml version="1.0" encoding="UTF-8" standalone="no"?>
<svg
   viewBox="0 0 50 50"
   version="1.1"
   x="0px"
   y="0px"
   id="svg4"
   width="50"
   height="50"
   xmlns="http://www.w3.org/2000/svg"
   xmlns:svg="http://www.w3.org/2000/svg"
   xmlns:rdf="http://www.w3.org/1999/02/22-rdf-syntax-ns#"
   xmlns:cc="http://creativecommons.org/ns#"
   xmlns:dc="http://purl.org/dc/elements/1.1/">
  <defs
     id="defs4" />
  <title
     id="title1">Flip vertical</title>
  <desc
     id="desc1">Created with Sketch.</desc>
  <g
     stroke="none"
     stroke-width="1"
     fill="none"
     fill-rule="evenodd"
     id="g3"
     transform="matrix(0,-0.89831392,1.125863,0,-10.167286,54.195202)">
    <g
       transform="translate(9,7)"
       fill="#000000"
       id="g2">
      <path
         d="M 21,8.472136 V 40 c 0,1.104569 -0.895431,2 -2,2 H 3.236068 c -1.1045695,0 -2,-0.895431 -2,-2 0,-0.31049 0.07229,-0.616716 0.2111456,-0.894427 L 17.211146,7.5777088 C 17.705124,6.5897518 18.90647,6.1893031 19.894427,6.6832816 20.571995,7.0220656 21,7.7145918 21,8.472136 Z"
         id="path1" />
      <path
         d="M 45.763932,8.472136 V 40 c 0,1.104569 -0.895431,2 -2,2 H 28 c -1.10457,0 -2,-0.895431 -2,-2 0,-0.31049 0.07229,-0.616716 0.211146,-0.894427 L 41.975078,7.5777088 c 0.493978,-0.987957 1.695324,-1.3884057 2.683281,-0.8944272 0.677568,0.338784 1.105573,1.0313102 1.105573,1.7888544 z M 28,40 H 43.763932 V 8.472136 Z"
         fill-rule="nonzero"
         transform="matrix(-1,0,0,1,71.763932,0)"
         id="path2" />
    </g>
  </g>
  <metadata
     id="metadata4">
    <rdf:RDF>
      <cc:Work
         rdf:about="">
        <dc:title>Flip vertical</dc:title>
      </cc:Work>
    </rdf:RDF>
  </metadata>
</svg>
