<?xml version="1.0" encoding="UTF-8" standalone="no"?>
<svg
   version="1.1"
   x="0px"
   y="0px"
   viewBox="0 0 50 50"
   enable-background="new 0 0 100 100"
   xml:space="preserve"
   id="svg2"
   width="50"
   height="50"
   xmlns="http://www.w3.org/2000/svg"
   xmlns:svg="http://www.w3.org/2000/svg"><defs
     id="defs2" /><path
     d="M 20,16.6668 H 30 L 25,10 Z M 10,25 16.6668,30 V 20 Z M 8.3332,8.3332 H 41.6664 V 41.6664 H 8.3332 Z M 20,33.3332 25,40 30,33.3332 Z M 33.3332,20 V 30 L 40,25 Z M 5,6.6668 V 43.3336 C 5,45 5,45 6.6668,45 H 43.3336 C 45,45 45,45 45,43.3332 V 6.6668 C 45,5 45,5 43.3332,5 H 6.6668 C 5,5 5,5 5,6.6668 Z"
     id="path1"
     style="stroke-width:0.4" /></svg>
