<?xml version="1.0" encoding="UTF-8" standalone="no"?>
<svg
   version="1.1"
   viewBox="-5 -10 110 110"
   id="svg8"
   sodipodi:docname="noun-screen.svg"
   width="110"
   height="110"
   inkscape:version="1.1.1 (3bf5ae0d25, 2021-09-20)"
   xmlns:inkscape="http://www.inkscape.org/namespaces/inkscape"
   xmlns:sodipodi="http://sodipodi.sourceforge.net/DTD/sodipodi-0.dtd"
   xmlns="http://www.w3.org/2000/svg"
   xmlns:svg="http://www.w3.org/2000/svg">
  <defs
     id="defs12" />
  <sodipodi:namedview
     id="namedview10"
     pagecolor="#ffffff"
     bordercolor="#666666"
     borderopacity="1.0"
     inkscape:pageshadow="2"
     inkscape:pageopacity="0.0"
     inkscape:pagecheckerboard="0"
     showgrid="false"
     inkscape:zoom="6.0148148"
     inkscape:cx="55.030788"
     inkscape:cy="47.466133"
     inkscape:window-width="1920"
     inkscape:window-height="1001"
     inkscape:window-x="-9"
     inkscape:window-y="-9"
     inkscape:window-maximized="1"
     inkscape:current-layer="svg8" />
  <path
     d="m 57.488,55.316 c -1.6562,0 -3,-1.3438 -3,-3 0,-1.6562 1.3438,-3 3,-3 h 2.7734 L 52.988,42.0426 c -1.1719,-1.1719 -1.1719,-3.0703 0,-4.2422 1.1719,-1.1719 3.0703,-1.1719 4.2422,0 l 7.2734,7.2734 v -2.7734 c 0,-1.6562 1.3438,-3 3,-3 1.6562,0 3,1.3438 3,3 v 10.016 c 0,1.6523 -1.3477,3 -3,3 z m -46.637,6.8086 c 1.6562,0 3,1.3438 3,3 0,1.6562 -1.3438,3 -3,3 -2.375,0 -4.5312,-0.97266 -6.0938,-2.5312 C 3.1986,64.0348 2.226,61.8746 2.226,59.4996 V 10.1246 C 2.226,7.7496 3.19866,5.5934 4.7572,4.0308 6.3158,2.4722 8.476,1.4996 10.851,1.4996 h 78.297 c 2.375,0 4.5312,0.97266 6.0938,2.5312 1.5586,1.5586 2.5312,3.7188 2.5312,6.0938 v 49.375 c 0,2.375 -0.97266,4.5312 -2.5312,6.0938 -1.5586,1.5586 -3.7188,2.5312 -6.0938,2.5312 H 58.082 l 1.3242,4.5781 c 2.9023,0.39062 5.7266,0.95312 8.4336,1.6836 5.6328,1.5195 10.762,3.7656 15.012,6.6289 1.3711,0.92578 1.7344,2.7891 0.80859,4.1602 -0.92578,1.3711 -2.7891,1.7344 -4.1602,0.80859 -3.7031,-2.4922 -8.2188,-4.4609 -13.211,-5.8125 -5.0547,-1.3633 -10.598,-2.0938 -16.289,-2.0938 -5.691,0 -11.23,0.73047 -16.289,2.0938 -4.9922,1.3477 -9.5078,3.3164 -13.211,5.8125 -1.3711,0.92578 -3.2344,0.5625 -4.1602,-0.80859 -0.92578,-1.3711 -0.5625,-3.2344 0.80859,-4.1602 4.25,-2.8633 9.3828,-5.1094 15.012,-6.6289 2.707,-0.73047 5.5312,-1.2969 8.4336,-1.6836 l 1.3242,-4.5781 h -14.383 c -1.6562,0 -3,-1.3438 -3,-3 0,-1.6562 1.3438,-3 3,-3 h 61.613 c 0.71875,0 1.3789,-0.29688 1.8516,-0.77344 0.47656,-0.47656 0.77344,-1.1328 0.77344,-1.8516 v -49.375 c 0,-0.71875 -0.29688,-1.3789 -0.77344,-1.8516 -0.47656,-0.47656 -1.1328,-0.77344 -1.8516,-0.77344 h -78.297 c -0.71875,0 -1.3789,0.29688 -1.8516,0.77344 -0.47656,0.47656 -0.77344,1.1328 -0.77344,1.8516 v 49.375 c 0,0.71875 0.29688,1.3789 0.77344,1.8516 0.47656,0.47656 1.1328,0.77344 1.8516,0.77344 z m 41.008,6 h -3.7188 l -1.1641,4.0156 c 1.0039,-0.04297 2.0117,-0.0625 3.0195,-0.0625 1.0117,0 2.0195,0.01953 3.0195,0.0625 L 51.851,68.1246 Z m -32.434,-6 c 1.6562,0 3,1.3438 3,3 0,1.6562 -1.3438,3 -3,3 h -0.46094 c -1.6562,0 -3,-1.3438 -3,-3 0,-1.6562 1.3438,-3 3,-3 z m 38.062,-41.812 c -1.6562,0 -3,-1.3438 -3,-3 0,-1.6562 1.3438,-3 3,-3 h 10.016 c 1.6523,0 3,1.3477 3,3 v 10.016 c 0,1.6562 -1.3438,3 -3,3 -1.6562,0 -3,-1.3438 -3,-3 v -2.7734 l -7.2734,7.2734 c -1.1719,1.1719 -3.0703,1.1719 -4.2422,0 -1.1719,-1.1719 -1.1719,-3.0703 0,-4.2422 l 7.2734,-7.2734 z m -14.973,-6 c 1.6562,0 3,1.3438 3,3 0,1.6562 -1.3438,3 -3,3 h -2.7734 l 7.2734,7.2734 c 1.1719,1.1719 1.1719,3.0703 0,4.2422 -1.1719,1.1719 -3.0703,1.1719 -4.2422,0 l -7.2734,-7.2734 v 2.7734 c 0,1.6562 -1.3438,3 -3,3 -1.6562,0 -3,-1.3438 -3,-3 v -10.016 c 0,-1.6523 1.3477,-3 3,-3 z m 0,35 c 1.6562,0 3,1.3438 3,3 0,1.6562 -1.3438,3 -3,3 H 32.498 c -1.6523,0 -3,-1.3477 -3,-3 v -10.016 c 0,-1.6562 1.3438,-3 3,-3 1.6562,0 3,1.3438 3,3 V 45.07 l 7.2734,-7.2734 c 1.1719,-1.1719 3.0703,-1.1719 4.2422,0 1.1719,1.1719 1.1719,3.0703 0,4.2422 l -7.2734,7.2734 z"
     id="path2" />
</svg>
