<?xml version="1.0" encoding="UTF-8" standalone="no"?>
<svg
   version="1.1"
   viewBox="-5 -10 110 110"
   id="svg8"
   sodipodi:docname="noun-print.svg"
   width="110"
   height="110"
   inkscape:version="1.1.1 (3bf5ae0d25, 2021-09-20)"
   xmlns:inkscape="http://www.inkscape.org/namespaces/inkscape"
   xmlns:sodipodi="http://sodipodi.sourceforge.net/DTD/sodipodi-0.dtd"
   xmlns="http://www.w3.org/2000/svg"
   xmlns:svg="http://www.w3.org/2000/svg">
  <defs
     id="defs12" />
  <sodipodi:namedview
     id="namedview10"
     pagecolor="#ffffff"
     bordercolor="#666666"
     borderopacity="1.0"
     inkscape:pageshadow="2"
     inkscape:pageopacity="0.0"
     inkscape:pagecheckerboard="0"
     showgrid="false"
     inkscape:zoom="6.0148148"
     inkscape:cx="55.030788"
     inkscape:cy="54.116379"
     inkscape:window-width="1920"
     inkscape:window-height="1001"
     inkscape:window-x="-9"
     inkscape:window-y="-9"
     inkscape:window-maximized="1"
     inkscape:current-layer="svg8" />
  <path
     d="m 28.009961,-0.80049261 c -2.771995,0 -5.07341,2.30129271 -5.07341,5.07340941 V 23.292116 h -1.697425 c -1.364635,0 -3.618456,-0.114116 -5.624936,0.351852 -4.997333,1.160165 -8.9152268,5.082904 -10.0753675,10.080114 -0.4659673,2.00648 -0.3518522,4.260301 -0.3518522,5.624936 v 29.589614 c 0,2.771995 2.3012927,5.073409 5.0734097,5.073409 h 12.681089 v 11.41152 c 0,2.771995 2.301292,5.073409 5.073409,5.073409 h 45.646078 c 2.771995,0 5.07341,-2.301292 5.07341,-5.073409 l -0.0047,-11.416267 h 12.681089 c 2.771995,0 5.073409,-2.301292 5.073409,-5.073409 L 96.47937,39.34914 c 0,-1.364635 0.114115,-3.618456 -0.351852,-5.620189 C 94.967341,28.726872 91.049361,24.80423 86.05215,23.643968 84.045671,23.178 81.79185,23.292116 80.427215,23.292116 H 78.729789 V 4.2729168 c 0,-2.771995 -2.301293,-5.07340941 -5.073409,-5.07340941 z m 0,5.07340941 H 73.656039 V 23.292116 H 28.009961 Z M 21.239126,28.360656 h 59.187748 c 1.435965,0 3.760993,0.05705 4.479036,0.223471 3.119149,0.727489 5.553607,3.166742 6.281144,6.285891 0.16642,0.71797 0.223471,3.043072 0.223471,4.479037 V 68.938669 H 78.729436 V 54.98801 c 0,-2.771995 -2.301293,-5.07341 -5.073409,-5.07341 l -45.646079,0.0047 c -2.771995,0 -5.073409,2.301292 -5.073409,5.073409 v 13.94579 H 10.260319 V 39.348933 c 0,-1.435965 0.05705,-3.760993 0.223471,-4.479037 0.722729,-3.119148 3.161995,-5.558353 6.281144,-6.285891 0.713223,-0.166419 3.038324,-0.223471 4.474289,-0.223471 z m -0.836845,6.342857 c -1.402613,0 -2.53427,1.131646 -2.53427,2.534271 0,1.402625 1.131645,2.53427 2.53427,2.53427 h 10.14195 c 1.402613,0 2.539017,-1.131645 2.539017,-2.53427 0,-1.402625 -1.136392,-2.534271 -2.539017,-2.534271 z m 7.60768,20.2839 H 73.656039 V 85.418132 H 28.009961 Z m 8.877249,6.980077 c -0.675185,0 -1.317042,0.266269 -1.792613,0.741755 -0.475474,0.475474 -0.746502,1.122139 -0.746502,1.792613 0,1.402612 1.136393,2.539017 2.539018,2.539017 h 27.891579 c 1.402613,0 2.539018,-1.136393 2.539018,-2.539017 0,-0.670426 -0.271029,-1.317042 -0.746502,-1.792613 -0.475486,-0.475474 -1.11738,-0.741755 -1.792613,-0.741755 z m 0,11.406772 c -0.675185,0 -1.317042,0.266269 -1.792613,0.741755 -0.475474,0.475474 -0.746502,1.122139 -0.746502,1.792613 0,1.402613 1.136393,2.539017 2.539018,2.539017 h 27.891579 c 1.402613,0 2.539018,-1.136392 2.539018,-2.539017 0,-0.670425 -0.271029,-1.317042 -0.746502,-1.792613 -0.475486,-0.475474 -1.11738,-0.741755 -1.792613,-0.741755 z"
     id="path2"
     style="stroke-width:1.21723" />
</svg>
