<svg xmlns="http://www.w3.org/2000/svg" xmlns:xlink="http://www.w3.org/1999/xlink" version="1.1" x="0px" y="0px" viewBox="0 0 80 100" style="enable-background:new 0 0 80 80;" xml:space="preserve"><g><path d="M48.1162,61.3838c0,2.2695-1.8467,4.1162-4.1162,4.1162H18.6162c-2.2695,0-4.1162-1.8467-4.1162-4.1162V18.6162   c0-2.2695,1.8467-4.1162,4.1162-4.1162H44c2.2695,0,4.1162,1.8467,4.1162,4.1162V33h3V18.6162   c0-3.9238-3.1924-7.1162-7.1162-7.1162H18.6162c-3.9238,0-7.1162,3.1924-7.1162,7.1162v42.7676   c0,3.9238,3.1924,7.1162,7.1162,7.1162H44c3.9238,0,7.1162-3.1924,7.1162-7.1162V47h-3V61.3838z"/><polygon points="57.0088,28.8901 54.9912,31.1099 63.1206,38.5 31,38.5 31,41.5 63.1206,41.5 54.9912,48.8901 57.0088,51.1099    69.2295,40  "/></g><text x="0" y="95" fill="#000000" font-size="5px" font-weight="bold" font-family="'Helvetica Neue', Helvetica, Arial-Unicode, Arial, Sans-serif">Created by Icon Lauk</text><text x="0" y="100" fill="#000000" font-size="5px" font-weight="bold" font-family="'Helvetica Neue', Helvetica, Arial-Unicode, Arial, Sans-serif">from the Noun Project</text></svg>