<?xml version="1.0" encoding="UTF-8" standalone="no"?>
<svg
   version="1.1"
   x="0px"
   y="0px"
   viewBox="0 0 50 50"
   enable-background="new 0 0 100 100"
   xml:space="preserve"
   id="svg3"
   width="50"
   height="50"
   xmlns="http://www.w3.org/2000/svg"
   xmlns:svg="http://www.w3.org/2000/svg"><defs
     id="defs3" /><g
     id="g1"
     transform="matrix(-0.53741771,0,0,0.53743937,51.870885,-1.8722372)"><path
       d="M 63.711,47.877 44.42,36.745 c -1.17,-0.679 -2.668,-0.279 -3.344,0.892 -0.211,0.372 -0.328,0.791 -0.328,1.226 V 61.14 c 0,1.35 1.098,2.441 2.449,2.441 0.428,0 0.846,-0.111 1.223,-0.324 L 63.711,52.116 c 1.168,-0.674 1.566,-2.172 0.893,-3.341 -0.215,-0.371 -0.524,-0.68 -0.893,-0.898 z"
       id="path1" /></g><path
     d="M 5,24.999731 C 5,36.04411 13.954454,45 25,45 36.046084,45 45,36.04411 45,24.999731 45,13.952128 36.046084,5 25,5 13.954454,5 5,13.952128 5,24.999731 Z m 2.30391,0 c 0,-9.77441 7.923686,-17.695728 17.69609,-17.695728 9.773478,0 17.695553,7.921318 17.695553,17.695728 0,9.770111 -7.922075,17.696266 -17.695553,17.696266 -9.772404,0 -17.69609,-7.926155 -17.69609,-17.696266 z"
     id="path2"
     style="stroke-width:0.537429" /></svg>
