<svg xmlns="http://www.w3.org/2000/svg" data-name="Layer 1" viewBox="-5.0 -10.0 110.0 135.0" x="0px" y="0px"><title>UI Icon</title><path d="M90.166,40.922h-2.19a1.618,1.618,0,0,1-1.59-1.2A37.6,37.6,0,0,0,83,31.543a1.615,1.615,0,0,1,.273-1.975l1.55-1.55a5.66,5.66,0,0,0,0-7.993L79.975,15.18a5.658,5.658,0,0,0-7.993,0l-1.55,1.55A1.616,1.616,0,0,1,68.457,17a37.6,37.6,0,0,0-8.176-3.389,1.618,1.618,0,0,1-1.2-1.59V9.834a5.658,5.658,0,0,0-5.652-5.651H46.574a5.658,5.658,0,0,0-5.652,5.651v2.19a1.618,1.618,0,0,1-1.2,1.59A37.637,37.637,0,0,0,31.543,17a1.617,1.617,0,0,1-1.975-.273l-1.55-1.55a5.658,5.658,0,0,0-7.993,0l-4.846,4.845a5.66,5.66,0,0,0,0,7.993l1.55,1.551A1.613,1.613,0,0,1,17,31.543a37.7,37.7,0,0,0-3.39,8.176,1.616,1.616,0,0,1-1.589,1.2H9.834a5.658,5.658,0,0,0-5.651,5.652v6.852a5.658,5.658,0,0,0,5.651,5.652h2.19a1.616,1.616,0,0,1,1.589,1.2A37.661,37.661,0,0,0,17,68.457a1.615,1.615,0,0,1-.273,1.975l-1.55,1.551a5.658,5.658,0,0,0,0,7.992l4.845,4.846a5.659,5.659,0,0,0,7.992,0l1.552-1.551A1.613,1.613,0,0,1,31.543,83a37.711,37.711,0,0,0,8.176,3.39,1.616,1.616,0,0,1,1.2,1.589v2.19a5.658,5.658,0,0,0,5.652,5.651h6.852a5.658,5.658,0,0,0,5.652-5.651v-2.19a1.616,1.616,0,0,1,1.2-1.589A37.661,37.661,0,0,0,68.457,83a1.615,1.615,0,0,1,1.975.273l1.55,1.551a5.66,5.66,0,0,0,7.993,0l4.845-4.845a5.658,5.658,0,0,0,0-7.992l-1.55-1.551A1.615,1.615,0,0,1,83,68.457a37.666,37.666,0,0,0,3.389-8.176,1.618,1.618,0,0,1,1.59-1.2h2.19a5.658,5.658,0,0,0,5.651-5.652V46.574A5.658,5.658,0,0,0,90.166,40.922Zm1.651,12.5a1.654,1.654,0,0,1-1.651,1.652h-2.19A5.6,5.6,0,0,0,82.537,59.2a33.687,33.687,0,0,1-3.03,7.306,5.6,5.6,0,0,0,.934,6.759l1.551,1.551a1.654,1.654,0,0,1,0,2.335l-4.846,4.846a1.653,1.653,0,0,1-2.335,0l-1.55-1.551a5.6,5.6,0,0,0-6.76-.933A33.7,33.7,0,0,1,59.2,82.537a5.6,5.6,0,0,0-4.117,5.439v2.19a1.654,1.654,0,0,1-1.652,1.651H46.574a1.654,1.654,0,0,1-1.652-1.651v-2.19a5.6,5.6,0,0,0-4.117-5.439,33.65,33.65,0,0,1-7.306-3.03,5.683,5.683,0,0,0-2.778-.733,5.615,5.615,0,0,0-3.981,1.667l-1.551,1.551a1.653,1.653,0,0,1-2.335,0l-4.846-4.846a1.653,1.653,0,0,1,0-2.335l1.551-1.551a5.6,5.6,0,0,0,.933-6.759A33.7,33.7,0,0,1,17.463,59.2a5.6,5.6,0,0,0-5.439-4.117H9.834a1.654,1.654,0,0,1-1.651-1.652V46.574a1.654,1.654,0,0,1,1.651-1.652h2.19a5.6,5.6,0,0,0,5.439-4.117,33.621,33.621,0,0,1,3.03-7.306,5.6,5.6,0,0,0-.934-6.759l-1.551-1.551a1.653,1.653,0,0,1,0-2.335l4.846-4.846a1.7,1.7,0,0,1,2.335,0l1.55,1.55a5.6,5.6,0,0,0,6.76.933,33.642,33.642,0,0,1,7.307-3.029,5.6,5.6,0,0,0,4.116-5.439V9.834a1.654,1.654,0,0,1,1.652-1.651h6.852a1.654,1.654,0,0,1,1.652,1.651v2.19A5.6,5.6,0,0,0,59.2,17.463a33.641,33.641,0,0,1,7.306,3.03,5.6,5.6,0,0,0,6.759-.934l1.551-1.551a1.654,1.654,0,0,1,2.335,0l4.845,4.846a1.653,1.653,0,0,1,0,2.335l-1.551,1.55a5.6,5.6,0,0,0-.934,6.76,33.637,33.637,0,0,1,3.03,7.307,5.6,5.6,0,0,0,5.439,4.116h2.19a1.654,1.654,0,0,1,1.651,1.652ZM50,25.47A24.53,24.53,0,1,0,74.53,50,24.558,24.558,0,0,0,50,25.47Zm0,45.06A20.53,20.53,0,1,1,70.53,50,20.554,20.554,0,0,1,50,70.53Z"/><text x="0.0" y="117.5" font-size="5.0" font-weight="bold" font-family="Arbeit Regular, Helvetica, Arial-Unicode, Arial, Sans-serif" fill="#000000">Created by Icon Designer</text><text x="0.0" y="122.5" font-size="5.0" font-weight="bold" font-family="Arbeit Regular, Helvetica, Arial-Unicode, Arial, Sans-serif" fill="#000000">from Noun Project</text></svg>