<?xml version="1.0" encoding="UTF-8" standalone="no"?>
<svg
   viewBox="0 0 50 50"
   x="0px"
   y="0px"
   version="1.1"
   id="svg2"
   width="50"
   height="50"
   xmlns="http://www.w3.org/2000/svg"
   xmlns:svg="http://www.w3.org/2000/svg"
   xmlns:rdf="http://www.w3.org/1999/02/22-rdf-syntax-ns#"
   xmlns:cc="http://creativecommons.org/ns#"
   xmlns:dc="http://purl.org/dc/elements/1.1/">
  <defs
     id="defs2" />
  <title
     id="title1">_</title>
  <g
     id="g1"
     transform="matrix(2.2229822,0,0,2.4999933,-3.8919288,-4.9998665)"
     style="fill:#bbbbbb;fill-opacity:1">
    <path
       d="M 17,12 H 12 V 7 A 2,2 0 0 0 10,5 H 6 A 2,2 0 0 0 4,7 v 8 a 2,2 0 0 0 2,2 h 1 v 1 a 2,2 0 0 0 2,2 h 8 a 2,2 0 0 0 2,-2 V 14 A 2,2 0 0 0 17,12 Z M 6,16 A 1.00115,1.00115 0 0 1 5,15 V 7 A 1.00115,1.00115 0 0 1 6,6 h 4 a 1.00115,1.00115 0 0 1 1,1 v 5 H 9 a 2,2 0 0 0 -2,2 v 2 z m 5,-3 v 2 a 1.00115,1.00115 0 0 1 -1,1 H 8 v -2 a 1.00115,1.00115 0 0 1 1,-1 z m 7,5 a 1.00115,1.00115 0 0 1 -1,1 H 9 A 1.00115,1.00115 0 0 1 8,18 v -1 h 2 a 2,2 0 0 0 2,-2 v -2 h 5 a 1.00115,1.00115 0 0 1 1,1 z m 3.85352,-9.14648 -2,2 a 0.50043,0.50043 0 0 1 -0.70606,0.0015 L 17.07422,8.79639 a 0.50030936,0.50030936 0 0 1 0.70508,-0.71 l 1.19812,1.18994 A 4.48885,4.48885 0 0 0 13.57861,5.0942 0.49979,0.49979 0 1 1 13.37451,4.11568 5.49694,5.49694 0 0 1 19.99,9.30261 l 1.15649,-1.15613 a 0.5,0.5 0 0 1 0.707,0.707 z"
       id="path1"
       style="fill:#bbbbbb;fill-opacity:1" />
  </g>
  <metadata
     id="metadata2">
    <rdf:RDF>
      <cc:Work
         rdf:about="">
        <dc:title>_</dc:title>
      </cc:Work>
    </rdf:RDF>
  </metadata>
</svg>
