<?xml version="1.0" encoding="UTF-8" standalone="no"?>
<svg
   version="1.1"
   viewBox="-5 -10 50 50"
   id="svg2"
   width="50"
   height="50"
   xmlns="http://www.w3.org/2000/svg"
   xmlns:svg="http://www.w3.org/2000/svg">
  <defs
     id="defs2" />
  <path
     d="M 0,27.844535 V 0.855066 C 0,0.383075 0.3830077,0 0.8549169,0 H 12.899305 c 0.307772,0 0.591626,0.165887 0.743779,0.43438 l 2.162965,3.827332 h 18.770878 c 0.471909,0 0.854917,0.383075 0.854917,0.855066 v 3.406606 h 3.712111 c 0.263316,0 0.51126,0.12142 0.673699,0.32835 0.162435,0.20693 0.220573,0.477114 0.157309,0.731957 l -4.56195,18.451064 c -0.01539,0.06669 -0.03762,0.129969 -0.06839,0.189825 -0.07694,0.157337 -0.200053,0.283887 -0.35052,0.367682 C 34.870994,28.660672 34.729075,28.7 34.578608,28.7 H 0.856856 C 0.658515,28.7 0.4755599,28.63159 0.3302314,28.518725 0.2755164,28.475969 0.2276379,28.428087 0.1831827,28.37165 0.0686218,28.226288 0.0019391,28.043301 0.0019391,27.844934 Z M 33.721748,8.523126 v -2.55154 h -18.41501 c -0.307772,0 -0.591626,-0.165886 -0.743779,-0.43438 L 12.399994,1.709874 H 1.7099214 V 20.827707 L 4.5927218,9.173044 c 0.09404,-0.381363 0.4360115,-0.64987 0.8292663,-0.64987 H 33.723411 Z m 0.186373,18.466387 4.142962,-16.757655 H 6.090295 L 1.9473336,26.989513 Z"
     fill-rule="evenodd"
     id="path1"
     style="stroke-width:0.437761" />
</svg>
