<?xml version="1.0" encoding="UTF-8" standalone="no"?>
<svg
   version="1.1"
   viewBox="-5 -10 110 110"
   id="svg4"
   sodipodi:docname="noun-copy-image.svg"
   width="110"
   height="110"
   inkscape:version="1.1.1 (3bf5ae0d25, 2021-09-20)"
   xmlns:inkscape="http://www.inkscape.org/namespaces/inkscape"
   xmlns:sodipodi="http://sodipodi.sourceforge.net/DTD/sodipodi-0.dtd"
   xmlns="http://www.w3.org/2000/svg"
   xmlns:svg="http://www.w3.org/2000/svg">
  <defs
     id="defs8" />
  <sodipodi:namedview
     id="namedview6"
     pagecolor="#ffffff"
     bordercolor="#666666"
     borderopacity="1.0"
     inkscape:pageshadow="2"
     inkscape:pageopacity="0.0"
     inkscape:pagecheckerboard="0"
     showgrid="false"
     height="110px"
     inkscape:zoom="6.0148148"
     inkscape:cx="55.030788"
     inkscape:cy="54.116379"
     inkscape:window-width="1920"
     inkscape:window-height="1001"
     inkscape:window-x="-9"
     inkscape:window-y="-9"
     inkscape:window-maximized="1"
     inkscape:current-layer="svg4" />
  <path
     d="M 87.621,-1.918 H 27.613 c -4.5625,0 -8.3047,3.7344 -8.3047,8.2969 v 3.9805 h -5.4609 c -2.6836,0 -5.1328,1.1016 -6.9062,2.8672 C 5.1834,15 4.0818,17.4493 4.0818,20.1328 v 60.012 c 0,2.6953 1.1016,5.1328 2.8672,6.9062 1.7734,1.7656 4.2148,2.8672 6.9062,2.8672 h 60.012 c 2.6836,0 5.1328,-1.1016 6.8984,-2.8672 1.7773,-1.7773 2.8672,-4.2148 2.8672,-6.9062 v -5.4609 h 3.9805 c 4.5625,0 8.3047,-3.7344 8.3047,-8.2969 V 6.379 c 0,-4.5625 -3.7344,-8.2969 -8.2969,-8.2969 z M 9.039,15.316 c 1.2344,-1.2344 2.9375,-2 4.8164,-2 h 60.012 c 1.8672,0 3.5703,0.76562 4.8164,2 1.2344,1.2344 2.0117,2.9375 2.0117,4.8164 v 32.051 l -16.121,-16.121 c -1.1953,-1.2031 -2.7852,-1.8047 -4.3555,-1.8047 -1.582,0 -3.1523,0.60156 -4.3555,1.8047 l -18.262,18.242 -8.1445,-8.1445 c -1.2031,-1.2031 -2.7852,-1.8047 -4.3555,-1.8047 -1.5703,0 -3.1523,0.60156 -4.3555,1.8047 L 7.031,59.8669 v -39.734 c 0,-1.8789 0.77344,-3.582 2.0078,-4.8164 z m 0,69.645 C 7.8046,83.7266 7.0273,82.0235 7.0273,80.1446 l 0.00391,-16.105 15.797,-15.797 c 0.62109,-0.62109 1.4492,-0.9375 2.2773,-0.9375 0.8281,0 1.6445,0.31641 2.2773,0.9375 l 38.723,38.723 h -52.246 c -1.8789,0.0039 -3.582,-0.76172 -4.8203,-2.0039 z m 69.645,0 c -1.2344,1.2344 -2.9375,2.0117 -4.8164,2.0117 h -3.5938 l -30.578,-30.586 18.246,-18.234 c 0.62109,-0.62109 1.4492,-0.9375 2.2656,-0.9375 0.82812,0 1.6523,0.30469 2.2773,0.9375 l 18.215,18.203 v 23.777 c -0.01563,1.8867 -0.78125,3.5898 -2.0156,4.8281 z M 34.481,36.766 c 2.3555,0 4.4805,-0.96094 6.0195,-2.4883 1.5391,-1.5391 2.4883,-3.6719 2.4883,-6.0195 0,-2.3555 -0.94922,-4.4805 -2.4883,-6.0195 -1.5391,-1.5391 -3.6719,-2.4883 -6.0195,-2.4883 -2.3477,0 -4.4805,0.94922 -6.0195,2.4883 -1.5391,1.5391 -2.4883,3.6719 -2.4883,6.0195 0,2.3477 0.96094,4.4805 2.4883,6.0195 1.5391,1.5273 3.6719,2.4883 6.0195,2.4883 z M 30.5513,24.317 c 1.0117,-1 2.3984,-1.6211 3.9297,-1.6211 1.5391,0 2.9297,0.62109 3.9375,1.6211 1,1.0117 1.6211,2.3984 1.6211,3.9375 0,1.5312 -0.62109,2.918 -1.6211,3.9297 -1.0117,1 -2.3984,1.6211 -3.9375,1.6211 -1.5312,0 -2.918,-0.62109 -3.9297,-1.6211 -1,-1.0117 -1.6211,-2.3984 -1.6211,-3.9297 -0.01172,-1.5391 0.60937,-2.9258 1.6211,-3.9375 z m 15.133,47.797 c 0.58203,0.58203 0.58203,1.5117 0,2.082 -0.57031,0.58203 -1.5117,0.58203 -2.082,0 l -9.3789,-9.3789 c -0.57031,-0.57031 -0.57031,-1.5117 0,-2.082 0.57031,-0.57031 1.5117,-0.57031 2.082,0 z m 7.7148,9.8047 c -0.57031,0.58203 -1.5117,0.58203 -2.082,0 l -3.0312,-3.0195 c -0.57031,-0.58203 -0.57031,-1.5117 0,-2.082 0.58203,-0.58203 1.5117,-0.58203 2.0938,0 l 3.0195,3.0195 c 0.58203,0.57031 0.58203,1.5 0,2.082 z m 23.355,-20.836 v 12.531 c 0,0.81641 -0.66406,1.4688 -1.4688,1.4688 -0.80469,0 -1.4688,-0.66406 -1.4688,-1.4688 v -12.531 c 0,-0.81641 0.66406,-1.4688 1.4688,-1.4688 0.80859,0 1.4688,0.65234 1.4688,1.4688 z"
     fill-rule="evenodd"
     id="path2" />
</svg>
