<svg xmlns:dc="http://purl.org/dc/elements/1.1/" xmlns:cc="http://creativecommons.org/ns#" xmlns:rdf="http://www.w3.org/1999/02/22-rdf-syntax-ns#" xmlns:svg="http://www.w3.org/2000/svg" xmlns="http://www.w3.org/2000/svg" xmlns:sodipodi="http://sodipodi.sourceforge.net/DTD/sodipodi-0.dtd" xmlns:inkscape="http://www.inkscape.org/namespaces/inkscape" version="1.1" x="0px" y="0px" viewBox="0 0 100 125"><g transform="translate(0,-952.36218)"><path style="text-indent:0;text-transform:none;direction:ltr;block-progression:tb;baseline-shift:baseline;color:#000000;enable-background:accumulate;" d="m 11,971.36215 c -3.2894,0 -6,2.71059 -6,6 l 0,44.00005 c 0,3.2894 2.7106,6 6,6 l 55.5312,0 c 2.9358,3.6477 7.4357,6 12.4688,6 8.8188,0 16,-7.1812 16,-16.0001 0,-5.0331 -2.3523,-9.533 -6,-12.4687 l 0,-27.53125 c 0,-3.28941 -2.7106,-6 -6,-6 l -72,0 z m 0,4 72,0 c 1.1426,0 2,0.8574 2,2 l 0,25.15625 c -1.8543,-0.7536 -3.8791,-1.1562 -6,-1.1562 -0.7677,0 -1.5108,0.082 -2.25,0.1875 l -6.4062,-5.68755 c -0.6627,-0.59273 -1.7368,-0.66072 -2.4688,-0.15625 l -14.75,10.1562 -18.8438,-16.0312 c -0.9383,-0.63265 -1.8124,-0.53814 -2.5,-0.0625 L 9,1007.2996 9,977.36215 c 0,-1.1426 0.8574,-2 2,-2 z m 43,4 c -3.8423,0 -7,3.15769 -7,7 0,3.84231 3.1577,7 7,7 3.8423,0 7,-3.15769 7,-7 0,-3.84231 -3.1577,-7 -7,-7 z m 0,4 c 1.6805,0 3,1.31945 3,3 0,1.68055 -1.3195,3 -3,3 -1.6805,0 -3,-1.31945 -3,-3 0,-1.68055 1.3195,-3 3,-3 z m -21.0625,10.53125 18.7813,15.9687 c 0.6601,0.5542 1.6921,0.6078 2.4062,0.125 l 14.7188,-10.12495 3.4062,3.00005 c -5.4555,2.5522 -9.25,8.0926 -9.25,14.4999 0,2.1209 0.4027,4.1458 1.1562,6.0001 l -53.1562,0 c -1.1426,0 -2,-0.8574 -2,-2 l 0,-9.0313 23.9375,-18.4375 z M 79,1004.3622 c 7.1975,0 13,5.8024 13,12.9999 0,7.1976 -5.8025,13.0001 -13,13.0001 -7.1975,0 -13,-5.8025 -13,-13.0001 0,-7.1975 5.8025,-12.9999 13,-12.9999 z m 0,0.9999 c -1.3807,0 -2.5,1.1193 -2.5,2.5 0,1.3807 1.1193,2.5 2.5,2.5 1.3807,0 2.5,-1.1193 2.5,-2.5 0,-1.3807 -1.1193,-2.5 -2.5,-2.5 z m 0,7 c -1.1046,0 -2,0.8954 -2,2 l 0,13.0001 c 0,1.1046 0.8954,2 2,2 1.1046,0 2,-0.8954 2,-2 l 0,-13.0001 c 0,-1.1046 -0.8954,-2 -2,-2 z" fill="#000000" fill-opacity="1" stroke="none" marker="none" visibility="visible" display="inline" overflow="visible"/></g><text x="0" y="115" fill="#000000" font-size="5px" font-weight="bold" font-family="'Helvetica Neue', Helvetica, Arial-Unicode, Arial, Sans-serif">Created by unlimicon</text><text x="0" y="120" fill="#000000" font-size="5px" font-weight="bold" font-family="'Helvetica Neue', Helvetica, Arial-Unicode, Arial, Sans-serif">from the Noun Project</text></svg>