<svg xmlns="http://www.w3.org/2000/svg" version="1.1" viewBox="-5.0 -10.0 110.0 135.0">
 <path d="m87.621 4.082h-60.008c-4.5625 0-8.3047 3.7344-8.3047 8.2969v3.9805h-5.4609c-2.6836 0-5.1328 1.1016-6.9062 2.8672-1.7578 1.7734-2.8594 4.2227-2.8594 6.9062v60.012c0 2.6953 1.1016 5.1328 2.8672 6.9062 1.7734 1.7656 4.2148 2.8672 6.9062 2.8672h60.012c2.6836 0 5.1328-1.1016 6.8984-2.8672 1.7773-1.7773 2.8672-4.2148 2.8672-6.9062v-5.4609h3.9805c4.5625 0 8.3047-3.7344 8.3047-8.2969v-60.008c0-4.5625-3.7344-8.2969-8.2969-8.2969zm-78.582 17.234c1.2344-1.2344 2.9375-2 4.8164-2h60.012c1.8672 0 3.5703 0.76562 4.8164 2 1.2344 1.2344 2.0117 2.9375 2.0117 4.8164v32.051l-16.121-16.121c-1.1953-1.2031-2.7852-1.8047-4.3555-1.8047-1.582 0-3.1523 0.60156-4.3555 1.8047l-18.262 18.242-8.1445-8.1445c-1.2031-1.2031-2.7852-1.8047-4.3555-1.8047-1.5703 0-3.1523 0.60156-4.3555 1.8047l-13.715 13.707v-39.734c0-1.8789 0.77344-3.582 2.0078-4.8164zm0 69.645c-1.2344-1.2344-2.0117-2.9375-2.0117-4.8164l0.003906-16.105 15.797-15.797c0.62109-0.62109 1.4492-0.9375 2.2773-0.9375s1.6445 0.31641 2.2773 0.9375l38.723 38.723h-52.246c-1.8789 0.003906-3.582-0.76172-4.8203-2.0039zm69.645 0c-1.2344 1.2344-2.9375 2.0117-4.8164 2.0117h-3.5938l-30.578-30.586 18.246-18.234c0.62109-0.62109 1.4492-0.9375 2.2656-0.9375 0.82812 0 1.6523 0.30469 2.2773 0.9375l18.215 18.203v23.777c-0.015625 1.8867-0.78125 3.5898-2.0156 4.8281zm-44.203-48.195c2.3555 0 4.4805-0.96094 6.0195-2.4883 1.5391-1.5391 2.4883-3.6719 2.4883-6.0195 0-2.3555-0.94922-4.4805-2.4883-6.0195-1.5391-1.5391-3.6719-2.4883-6.0195-2.4883-2.3477 0-4.4805 0.94922-6.0195 2.4883-1.5391 1.5391-2.4883 3.6719-2.4883 6.0195 0 2.3477 0.96094 4.4805 2.4883 6.0195 1.5391 1.5273 3.6719 2.4883 6.0195 2.4883zm-3.9297-12.449c1.0117-1 2.3984-1.6211 3.9297-1.6211 1.5391 0 2.9297 0.62109 3.9375 1.6211 1 1.0117 1.6211 2.3984 1.6211 3.9375 0 1.5312-0.62109 2.918-1.6211 3.9297-1.0117 1-2.3984 1.6211-3.9375 1.6211-1.5312 0-2.918-0.62109-3.9297-1.6211-1-1.0117-1.6211-2.3984-1.6211-3.9297-0.011719-1.5391 0.60937-2.9258 1.6211-3.9375zm15.133 47.797c0.58203 0.58203 0.58203 1.5117 0 2.082-0.57031 0.58203-1.5117 0.58203-2.082 0l-9.3789-9.3789c-0.57031-0.57031-0.57031-1.5117 0-2.082 0.57031-0.57031 1.5117-0.57031 2.082 0zm7.7148 9.8047c-0.57031 0.58203-1.5117 0.58203-2.082 0l-3.0312-3.0195c-0.57031-0.58203-0.57031-1.5117 0-2.082 0.58203-0.58203 1.5117-0.58203 2.0938 0l3.0195 3.0195c0.58203 0.57031 0.58203 1.5 0 2.082zm23.355-20.836v12.531c0 0.81641-0.66406 1.4688-1.4688 1.4688-0.80469 0-1.4688-0.66406-1.4688-1.4688v-12.531c0-0.81641 0.66406-1.4688 1.4688-1.4688 0.80859 0 1.4688 0.65234 1.4688 1.4688z" fill-rule="evenodd"/>
<text x="0.0" y="117.5" font-size="5.0" font-weight="bold" font-family="Arbeit Regular, Helvetica, Arial-Unicode, Arial, Sans-serif" fill="#000000">Created by Arjuna</text><text x="0.0" y="122.5" font-size="5.0" font-weight="bold" font-family="Arbeit Regular, Helvetica, Arial-Unicode, Arial, Sans-serif" fill="#000000">from Noun Project</text></svg>